<svg width="40" height="41" viewBox="0 0 40 41" fill="#D5D257" xmlns="http://www.w3.org/2000/svg">
<path d="M20 0.9375C8.95536 0.9375 0 9.89286 0 20.9375C0 31.9821 8.95536 40.9375 20 40.9375C31.0446 40.9375 40 31.9821 40 20.9375C40 9.89286 31.0446 0.9375 20 0.9375ZM29.6116 16.0134C29.625 16.2232 29.625 16.442 29.625 16.6563C29.625 23.2098 24.6339 30.7589 15.5134 30.7589C12.7009 30.7589 10.0938 29.942 7.89732 28.5357C8.29911 28.5804 8.68304 28.5982 9.09375 28.5982C11.4152 28.5982 13.5491 27.8125 15.25 26.4821C13.0714 26.4375 11.2411 25.0089 10.6161 23.0446C11.3795 23.1563 12.067 23.1563 12.8527 22.9554C11.7309 22.7275 10.7227 22.1182 9.99918 21.2312C9.2757 20.3441 8.88164 19.234 8.88393 18.0893V18.0268C9.54018 18.3973 10.3125 18.625 11.1205 18.6563C10.4413 18.2035 9.88419 17.5902 9.49871 16.8707C9.11323 16.1511 8.91127 15.3476 8.91071 14.5313C8.91071 13.6071 9.15179 12.7634 9.58482 12.0313C10.8299 13.564 12.3836 14.8176 14.1449 15.7106C15.9062 16.6035 17.8357 17.1159 19.808 17.2143C19.1071 13.8438 21.625 11.1161 24.6518 11.1161C26.0804 11.1161 27.3661 11.7143 28.2723 12.6786C29.3929 12.4688 30.4643 12.0491 31.4196 11.4866C31.0491 12.6339 30.2723 13.6027 29.2411 14.2143C30.2411 14.1071 31.2054 13.8304 32.0982 13.442C31.4241 14.433 30.5804 15.3125 29.6116 16.0134V16.0134Z"/>
</svg>
