<svg width="41" height="41" viewBox="0 0 41 41" fill="none" xmlns="http://www.w3.org/2000/svg">
<path d="M20.82 0.859863C9.77417 0.859863 0.820007 9.81403 0.820007 20.8599C0.820007 31.9057 9.77417 40.8599 20.82 40.8599C31.8658 40.8599 40.82 31.9057 40.82 20.8599C40.82 9.81403 31.8658 0.859863 20.82 0.859863ZM28.5117 23.4244C28.5117 23.4244 30.2804 25.1703 30.7158 25.9807C30.7283 25.9974 30.7346 26.014 30.7388 26.0224C30.9158 26.3203 30.9575 26.5515 30.87 26.7244C30.7242 27.0119 30.2242 27.1536 30.0533 27.1661H26.9283C26.7117 27.1661 26.2575 27.1099 25.7075 26.7307C25.2846 26.4349 24.8679 25.9494 24.4617 25.4765C23.8554 24.7724 23.3304 24.164 22.8013 24.164C22.734 24.1639 22.6672 24.1745 22.6033 24.1953C22.2033 24.3244 21.6908 24.8953 21.6908 26.4161C21.6908 26.8911 21.3158 27.164 21.0513 27.164H19.62C19.1325 27.164 16.5929 26.9932 14.3429 24.6203C11.5888 21.714 9.10959 15.8849 9.08876 15.8307C8.93251 15.4536 9.25542 15.2515 9.60751 15.2515H12.7638C13.1846 15.2515 13.3221 15.5078 13.4179 15.7349C13.5304 15.9994 13.9429 17.0515 14.62 18.2349C15.7179 20.164 16.3908 20.9474 16.9304 20.9474C17.0316 20.9462 17.131 20.9204 17.22 20.8724C17.9242 20.4807 17.7929 17.9703 17.7617 17.4494C17.7617 17.3515 17.7596 16.3265 17.3992 15.8349C17.1408 15.4786 16.7013 15.3432 16.4346 15.2932C16.5425 15.1443 16.6847 15.0235 16.8492 14.9411C17.3325 14.6994 18.2033 14.664 19.0679 14.664H19.5492C20.4867 14.6765 20.7283 14.7369 21.0679 14.8224C21.7554 14.9869 21.77 15.4307 21.7096 16.9494C21.6908 17.3807 21.6721 17.8682 21.6721 18.4432C21.6721 18.5682 21.6658 18.7015 21.6658 18.8432C21.645 19.6161 21.62 20.4932 22.1658 20.8536C22.237 20.8983 22.3193 20.9221 22.4033 20.9224C22.5929 20.9224 23.1638 20.9224 24.7096 18.2703C25.1863 17.4167 25.6006 16.5296 25.9492 15.6161C25.9804 15.5619 26.0721 15.3953 26.1804 15.3307C26.2604 15.2899 26.349 15.2692 26.4388 15.2703H30.1492C30.5533 15.2703 30.8304 15.3307 30.8825 15.4869C30.9742 15.7349 30.8658 16.4911 29.1721 18.7849L28.4158 19.7828C26.8804 21.7953 26.8804 21.8974 28.5117 23.4244Z" fill="#D5D257"/>
</svg>
