<svg width="40" height="41" viewBox="0 0 40 41" fill="#D5D257" xmlns="http://www.w3.org/2000/svg">
<path d="M20 40.0833C8.954 40.0833 0 31.1293 0 20.0833C0 9.03734 8.954 0.0833435 20 0.0833435C31.046 0.0833435 40 9.03734 40 20.0833C40 31.1293 31.046 40.0833 20 40.0833Z"/>
<path d="M19.06 24.5749C17.52 24.4095 16.134 24.0196 14.946 23.0641C14.798 22.9456 14.646 22.8313 14.512 22.6966C13.992 22.1861 13.938 21.5961 14.352 20.9918C14.702 20.4732 15.292 20.3344 15.908 20.6304C16.0268 20.6901 16.1405 20.7598 16.248 20.8386C18.462 22.4026 21.504 22.4454 23.728 20.9081C23.9418 20.73 24.1888 20.598 24.454 20.5201C24.6999 20.4466 24.9629 20.4598 25.2006 20.5576C25.4383 20.6554 25.6368 20.8321 25.764 21.0591C26.09 21.6043 26.084 22.1351 25.684 22.5577C25.0705 23.1947 24.3287 23.688 23.51 24.0032C22.734 24.3136 21.882 24.4687 21.04 24.5729C21.168 24.7158 21.228 24.7852 21.308 24.8669C22.45 26.0469 23.598 27.2229 24.738 28.4071C25.126 28.8114 25.208 29.3116 24.994 29.7811C24.76 30.2916 24.236 30.6305 23.724 30.5937C23.4133 30.5618 23.126 30.4108 22.92 30.1711C22.058 29.2789 21.18 28.403 20.334 27.4945C20.088 27.2291 19.968 27.2801 19.752 27.5088C18.884 28.4275 18.002 29.332 17.114 30.2324C16.716 30.6346 16.242 30.7081 15.78 30.4774C15.5433 30.3635 15.3439 30.1823 15.2055 29.9556C15.0672 29.7289 14.9958 29.4663 15 29.1993C15.0259 28.8687 15.1765 28.5613 15.42 28.3418L18.808 24.8526C18.882 24.775 18.952 24.6933 19.06 24.5749Z" fill="#000101"/>
<path d="M19.976 20.5C18.655 20.4882 17.392 19.9437 16.4625 18.9853C15.5331 18.0269 15.0124 16.7322 15.014 15.3836C15.0204 14.0291 15.5526 12.7325 16.494 11.778C17.4354 10.8235 18.7092 10.289 20.036 10.2917C20.696 10.2954 21.3487 10.4323 21.9566 10.6945C22.5645 10.9567 23.1157 11.339 23.5783 11.8195C24.041 12.2999 24.406 12.869 24.6524 13.494C24.8988 14.119 25.0217 14.7875 25.014 15.4612C25 18.2501 22.74 20.5102 19.976 20.5ZM22.464 15.3918C22.4648 15.0637 22.402 14.7386 22.2792 14.4354C22.1564 14.1322 21.976 13.8568 21.7484 13.6251C21.5209 13.3933 21.2507 13.2099 20.9533 13.0852C20.656 12.9606 20.3374 12.8973 20.016 12.8989C19.6921 12.8972 19.371 12.9615 19.0716 13.0878C18.7722 13.2142 18.5005 13.4001 18.2722 13.6349C18.044 13.8696 17.8638 14.1483 17.7422 14.4549C17.6206 14.7614 17.56 15.0896 17.564 15.4203C17.5656 15.7485 17.6307 16.073 17.7557 16.3753C17.8807 16.6776 18.0631 16.9517 18.2923 17.1817C18.5216 17.4117 18.7931 17.5932 19.0914 17.7156C19.3896 17.838 19.7086 17.8989 20.03 17.8948C20.3513 17.8951 20.6694 17.8304 20.966 17.7045C21.2626 17.5786 21.5318 17.3939 21.7581 17.1612C21.9844 16.9285 22.1633 16.6523 22.2845 16.3486C22.4057 16.0449 22.4667 15.7197 22.464 15.3918Z" fill="#000101"/>
</svg>
