<svg width="139" height="31" viewBox="0 0 139 31" fill="none" xmlns="http://www.w3.org/2000/svg">
<g clip-path="url(#clip0_1_14)">
<path d="M40.1973 1.25168V0H31.5568V1.25168H35.7309L29.4279 23.323L23.3336 1.25168H27.0904V0H16.1123V1.25168H19.5351L13.2739 23.323L7.17958 1.25168H10.8946V0H0V1.25168H2.75495L10.8946 31H12.2721L19.9108 4.25572L20.1195 3.2961L27.0904 31H28.4679L36.9414 1.25168H40.1973ZM43.2862 7.51009C38.8198 7.51009 36.2318 10.2638 36.1901 15.3957V19.7766C36.2318 24.9085 38.8198 27.6622 43.2444 27.6622C47.6691 27.6622 50.2988 24.9085 50.2988 19.7766V15.3957C50.3405 10.2638 47.7525 7.51009 43.2862 7.51009ZM46.9177 21.9879C46.9177 26.2019 45.7072 26.8277 43.2862 26.8277C40.8652 26.8277 39.6547 26.2019 39.6547 22.0713V13.1427C39.6547 9.01211 40.8652 8.38627 43.2862 8.38627C45.7072 8.38627 46.9177 9.01211 46.9177 13.2261V21.9879ZM83.4417 7.13459H82.3565L76.3039 26.4105H74.4255V27.245H80.1024V26.4105H77.3892L79.2258 20.5276H84.3601L85.988 26.4105H83.8592V27.245H90.7048V26.4105H88.8682L83.4417 7.13459ZM79.4763 19.7766L81.8556 12.0996H82.0643L84.1514 19.7766H79.4763ZM71.4201 26.4105V8.38627H73.2985V7.55182H68.039L62.4874 23.1978L57.1862 7.55182H51.9685V8.38627H53.8051V26.4105H52.0937V27.245H57.5619V26.4105H54.9739V9.30417L61.1516 27.8291H62.0282L68.5399 9.47106L68.4982 26.3688H66.4946V27.2032H73.5072V26.3688L71.4201 26.4105ZM101.349 8.38627H104.146V21.4038L95.9225 7.59354V7.55182H91.1222V8.38627H92.8336V26.4105H91.1222V27.245H96.5486V26.4105H93.7102V10.0969L104.146 27.6622V27.6205V27.6622H105.022V8.38627H106.859V7.55182H101.349V8.38627ZM108.988 21.821C107.944 21.821 107.109 22.7806 107.109 23.9071C107.109 25.0754 107.944 25.9933 108.988 25.9933C110.031 25.9933 110.866 25.0336 110.866 23.9071C110.866 22.7389 110.031 21.821 108.988 21.821ZM122.554 11.1817C122.512 11.14 122.512 11.0983 122.47 11.0565C122.387 10.9314 122.262 10.8479 122.178 10.8062C121.928 10.6393 121.552 10.5141 121.009 10.5141C119.59 10.5141 118.922 11.2234 118.296 12.183C117.879 12.8089 117.461 13.6433 117.211 14.144C117.211 13.8937 117.127 13.3513 116.835 12.5168C116.418 11.3903 116.042 11.0148 115.959 10.9731H112.619V11.8075H114.748V24.825H112.619V25.6595H120.216V24.825H117.211V15.7295C117.545 14.9367 118.046 13.8937 118.797 12.7672C119.548 11.8075 119.966 11.5155 120.383 11.5155C120.592 11.5155 120.592 12.3917 120.592 12.8089C120.592 12.8923 120.592 12.9341 120.592 13.0175C120.592 13.0592 120.592 13.0592 120.592 13.0592C120.592 14.9367 121.176 15.4374 121.844 15.4374C122.554 15.4374 123.096 14.9785 123.096 13.0592C123.055 12.3499 122.888 11.6406 122.554 11.1817C122.595 11.2234 122.554 11.1817 122.554 11.1817ZM137.33 24.7416C136.955 24.7416 136.913 24.3661 136.913 24.3244V10.8896H134.408V21.9879C134.367 22.0296 132.739 25.1588 130.485 25.1588C129.316 25.1588 128.94 24.533 128.94 23.8237V10.8896H124.223V11.7241H126.436V22.5303C126.436 22.5303 126.352 25.9933 130.151 25.9933C132.697 25.9933 134.158 23.6568 134.408 23.2396V23.323C134.367 24.6581 134.826 25.5343 135.494 25.576H139V24.7416H137.33Z" fill="#D5D257"/>
</g>
<defs>
<clipPath id="clip0_1_14">
<rect width="139" height="31" fill="white"/>
</clipPath>
</defs>
</svg>
